<svg width="39" height="39" viewBox="0 0 39 39" fill="none" xmlns="http://www.w3.org/2000/svg">
<g clip-path="url(#clip0)">
<path d="M39 19.5C39 22.3844 38.3737 25.1224 37.2498 27.5858C35.3286 31.797 31.9529 35.2042 27.7655 37.1671C27.0071 37.5221 26.2216 37.83 25.4128 38.0862C24.5032 38.3769 23.5648 38.6004 22.6016 38.7539C22.5978 38.7548 22.593 38.7557 22.5888 38.7557C22.1163 38.8313 21.6394 38.8893 21.1564 38.9301C21.0535 38.9387 20.9502 38.9467 20.8467 38.9539C20.7009 38.9634 20.5545 38.972 20.4072 38.9786C20.1064 38.9929 19.8041 39 19.5 39C19.1879 39 18.8784 38.9929 18.5705 38.9777C18.4312 38.9714 18.2917 38.9634 18.1524 38.953C18.0483 38.9458 17.9447 38.9387 17.8412 38.9301C17.347 38.8887 16.8575 38.828 16.3746 38.7501C16.1437 38.7126 15.9137 38.6721 15.6861 38.6266C14.6982 38.4308 13.7383 38.1612 12.8112 37.822C12.2738 37.6262 11.7477 37.4072 11.2336 37.1662C11.0586 37.0841 10.8842 36.999 10.7114 36.9106C10.2674 36.6863 9.83361 36.445 9.4102 36.1879C7.28899 34.9034 5.4329 33.2255 3.9413 31.2558C3.04598 30.073 2.28278 28.7852 1.6731 27.4129C0.597771 24.9951 0 22.3175 0 19.5C0 8.73031 8.73031 0 19.5 0C30.2697 0 39 8.73031 39 19.5Z" fill="#FFE152"/>
<path d="M15.686 25.3054V38.6266C14.6982 38.4308 13.7383 38.1612 12.8112 37.822C12.2738 37.6262 11.7477 37.4072 11.2336 37.1662C11.0586 37.0841 10.8842 36.999 10.7114 36.9106C10.2674 36.6863 9.8336 36.4449 9.4102 36.1879C7.28899 34.9034 5.43289 33.2255 3.94129 31.2557C3.04597 30.073 2.28277 28.7852 1.6731 27.4129V25.3054C1.6731 22.8605 3.3334 20.8029 5.58821 20.2004C5.67093 20.1781 5.75365 20.1573 5.83815 20.14C6.06161 20.0906 6.29161 20.057 6.52578 20.0379C6.6683 20.0269 6.81232 20.0204 6.95782 20.0204H10.4001C10.7846 20.0204 11.1595 20.0611 11.521 20.14C11.5415 20.1439 11.5623 20.1486 11.5829 20.1534C11.6436 20.1671 11.7049 20.182 11.7644 20.198C11.7662 20.1989 11.7677 20.1989 11.7691 20.1995C12.3645 20.3587 12.9177 20.619 13.4104 20.9612C14.7857 21.9155 15.686 23.505 15.686 25.3054Z" fill="#2BA1CF"/>
<path d="M15.686 25.3054V38.6266C14.6982 38.4308 13.7383 38.1612 12.8111 37.822C12.2738 37.6262 11.7477 37.4072 11.2336 37.1662C11.0586 37.0841 10.8842 36.999 10.7114 36.9106C10.2674 36.6863 9.8336 36.4449 9.41019 36.1879C7.28898 34.9034 5.43288 33.2255 3.94128 31.2557V25.3054C3.94128 22.8605 5.60159 20.8029 7.8564 20.2004C7.93941 20.1781 8.02213 20.1573 8.10634 20.14C8.33009 20.0906 8.5601 20.057 8.79397 20.0379C8.93649 20.0269 9.08051 20.0204 9.2263 20.0204H10.4001C10.7846 20.0204 11.1595 20.0611 11.521 20.14C11.5415 20.1439 11.5623 20.1486 11.5829 20.1534C11.6436 20.1671 11.7049 20.182 11.7644 20.198C11.7662 20.1989 11.7676 20.1989 11.7691 20.1995C12.3645 20.3587 12.9177 20.619 13.4104 20.9612C14.7857 21.9155 15.686 23.505 15.686 25.3054Z" fill="#66BAED"/>
<path d="M11.7822 20.1397L11.7697 20.1995L10.1886 27.5534C10.0368 28.2601 9.41496 28.7724 8.69252 28.773C8.68806 28.773 8.68389 28.773 8.67973 28.773C8.67496 28.773 8.6705 28.773 8.66574 28.773C7.943 28.7724 7.32143 28.2601 7.16968 27.5534L5.58852 20.2001L5.57602 20.1397H11.7822Z" fill="#F2F0EC"/>
<path d="M8.67913 22.1842L6.29965 23.5065L5.57602 20.1397L7.05453 19.2691" fill="#D8D5D0"/>
<path d="M8.67914 22.1842L11.0586 23.5065L11.7823 20.1397L10.3037 19.2691" fill="#D8D5D0"/>
<path d="M1.57492 18.7466V10.7759C1.57492 9.96603 1.71001 9.17247 1.97661 8.4173C2.97428 5.5787 5.66797 3.67084 8.67944 3.67084C9.05256 3.67084 9.42479 3.6997 9.7866 3.75683C11.441 4.0154 12.959 4.85983 14.0597 6.13482C15.1719 7.42349 15.7845 9.0716 15.7845 10.7759V18.7466" fill="#CC7A3B"/>
<path d="M4.49741 11.0872C4.49741 13.9064 6.1485 17.1682 7.05512 18.7466H1.57462V10.776C1.57462 9.96634 1.71 9.17278 1.9763 8.41731C2.96803 5.59509 5.63702 3.69287 8.62766 3.67145C6.44337 3.7259 4.49741 7.2304 4.49741 11.0872Z" fill="#A35418"/>
<path d="M10.5653 17.9846V20.2989C10.5653 21.146 10.0068 21.8622 9.23734 22.1C9.0612 22.1547 8.87344 22.1842 8.67944 22.1842C7.63803 22.1842 6.79419 21.3403 6.79419 20.2989V17.9846H10.5653Z" fill="#EAB599"/>
<path d="M10.5653 20.1522V20.2989C10.5653 21.146 10.0068 21.8622 9.23734 22.1C8.54317 21.8866 8.02127 21.2829 7.92487 20.5444C8.05073 20.5521 8.17748 20.556 8.30453 20.556C8.66129 20.556 9.01121 20.5277 9.3516 20.4718C9.77144 20.4042 10.1773 20.2962 10.5653 20.1522Z" fill="#F6CAAE"/>
<path d="M3.50718 14.192C3.50718 15.065 2.86954 15.789 2.03432 15.9232C1.94328 15.938 1.84925 15.9458 1.75344 15.9458C0.784927 15.9458 0 15.1609 0 14.192C0 13.2235 0.784927 12.4386 1.75344 12.4386C1.84925 12.4386 1.94328 12.4463 2.03432 12.4612C2.86954 12.5954 3.50718 13.319 3.50718 14.192Z" fill="#F6CAAE"/>
<path d="M3.50717 14.1921C3.50717 15.0651 2.86953 15.789 2.03432 15.9232C1.88287 15.3718 1.80164 14.7913 1.80164 14.1921C1.80164 13.5931 1.88287 13.0126 2.03432 12.4612C2.86953 12.5954 3.50717 13.3191 3.50717 14.1921Z" fill="#EAB599"/>
<path d="M2.38036 14.1921C2.38036 14.5384 2.09978 14.819 1.75343 14.819C1.40739 14.819 1.1268 14.5384 1.1268 14.1921C1.1268 13.846 1.40739 13.5654 1.75343 13.5654C2.09978 13.5654 2.38036 13.846 2.38036 14.1921Z" fill="#EAB599"/>
<path d="M13.1822 11.9531V17.9808C12.2506 18.8701 11.0559 19.486 9.72679 19.7003C9.71638 19.7021 9.70507 19.7038 9.69466 19.7056C9.36438 19.7583 9.02547 19.7845 8.67943 19.7845C5.07644 19.7845 2.15543 16.8635 2.15543 13.2605V10.776C2.15543 10.4579 2.17804 10.1449 2.22208 9.83899C3.77438 10.9554 6.00002 10.845 7.41813 9.50484C7.88766 9.0612 8.21407 8.53306 8.39854 7.97278C8.5012 8.95379 8.9499 9.90862 9.74524 10.6605C10.692 11.5543 11.9429 11.9855 13.1822 11.9531Z" fill="#EAB599"/>
<path d="M13.1822 11.9531V17.9808C12.2506 18.8701 11.0559 19.486 9.72679 19.7003C9.71638 19.7021 9.70507 19.7038 9.69466 19.7056C6.57399 19.2179 4.18707 16.5174 4.18707 13.2605V10.776C4.18707 10.7099 4.18826 10.6441 4.19064 10.5787C5.34096 10.6965 6.5359 10.3389 7.41813 9.50455C7.88766 9.0612 8.21407 8.53276 8.39854 7.97278C8.5012 8.95379 8.9499 9.90862 9.74524 10.6605C10.692 11.5543 11.9429 11.9855 13.1822 11.9531Z" fill="#F6CAAE"/>
<path d="M12.1836 12.7094C12.1836 12.1107 11.6983 11.6257 11.1 11.6257C10.5016 11.6257 10.0163 12.1107 10.0163 12.7094" fill="#EAB599"/>
<path d="M7.34373 12.7094C7.34373 12.1107 6.85843 11.6257 6.26006 11.6257C5.6617 11.6257 5.1767 12.1107 5.1767 12.7094" fill="#EAB599"/>
<path d="M7.00037 13.1706C7.00037 13.5794 6.66891 13.9109 6.26008 13.9109C5.85125 13.9109 5.52008 13.5794 5.52008 13.1706C5.52008 12.7618 5.85125 12.4306 6.26008 12.4306C6.66891 12.4306 7.00037 12.7618 7.00037 13.1706Z" fill="#3D4159"/>
<path d="M11.84 13.1706C11.84 13.5794 11.5088 13.9109 11.1 13.9109C10.6912 13.9109 10.36 13.5794 10.36 13.1706C10.36 12.7618 10.6912 12.4306 11.1 12.4306C11.5088 12.4306 11.84 12.7618 11.84 13.1706Z" fill="#3D4159"/>
<path d="M9.42032 15.0341H7.94003C7.76358 15.0341 7.62076 14.891 7.62076 14.7148C7.62076 14.5387 7.76358 14.3956 7.94003 14.3956H9.42032C9.59647 14.3956 9.73929 14.5387 9.73929 14.7148C9.73929 14.891 9.59647 15.0341 9.42032 15.0341Z" fill="#EAB599"/>
<path d="M8.68001 17.0542C8.13372 17.0542 7.58742 16.9173 7.08933 16.6433C6.94889 16.5662 6.89771 16.3898 6.97477 16.2493C7.05214 16.1089 7.22858 16.0577 7.36902 16.1348C8.18995 16.5861 9.17007 16.5861 9.991 16.1348C10.1314 16.0574 10.3079 16.1089 10.3853 16.2493C10.4623 16.3898 10.4111 16.5662 10.2707 16.6433C9.77261 16.9173 9.22631 17.0542 8.68001 17.0542Z" fill="#EAB599"/>
<path d="M6.84952 13.04C6.84952 13.2152 6.70729 13.3571 6.53233 13.3571C6.35708 13.3571 6.21515 13.2152 6.21515 13.04C6.21515 12.8647 6.35708 12.7228 6.53233 12.7228C6.70729 12.7228 6.84952 12.8647 6.84952 13.04Z" fill="white"/>
<path d="M11.7254 13.04C11.7254 13.2152 11.5835 13.3571 11.4085 13.3571C11.2333 13.3571 11.0913 13.2152 11.0913 13.04C11.0913 12.8647 11.2333 12.7228 11.4085 12.7228C11.5835 12.7228 11.7254 12.8647 11.7254 13.04Z" fill="white"/>
<path d="M13.1206 14.9734C13.1206 15.4221 12.7567 15.786 12.3077 15.786C11.859 15.786 11.4951 15.4221 11.4951 14.9734C11.4951 14.5244 11.859 14.1605 12.3077 14.1605C12.7567 14.1605 13.1206 14.5244 13.1206 14.9734Z" fill="#EAB599"/>
<path d="M5.86433 14.9734C5.86433 15.4221 5.50073 15.786 5.05173 15.786C4.60303 15.786 4.23914 15.4221 4.23914 14.9734C4.23914 14.5244 4.60303 14.1605 5.05173 14.1605C5.50073 14.1605 5.86433 14.5244 5.86433 14.9734Z" fill="#EAB599"/>
<path d="M37.2498 25.1447V27.5858C35.3286 31.797 31.9529 35.2042 27.7655 37.1671C27.0071 37.5221 26.2216 37.83 25.4128 38.0862C24.5032 38.3769 23.5648 38.6004 22.6016 38.7539C22.5978 38.7548 22.593 38.7557 22.5888 38.7557V25.1447C22.5888 22.2437 24.8231 19.8636 27.6662 19.6345C27.8158 19.6217 27.9661 19.6163 28.1181 19.6163H31.719C32.1448 19.6163 32.5593 19.663 32.9574 19.7547C35.4152 20.3165 37.2498 22.5174 37.2498 25.1447Z" fill="#BFD5DE"/>
<path d="M37.2498 25.1447V27.5858C35.3286 31.797 31.9529 35.2042 27.7655 37.1671C27.0071 37.5221 26.2216 37.83 25.4128 38.0862V25.1447C25.4128 22.0916 27.889 19.6163 30.943 19.6163H31.7196C34.7745 19.6163 37.2498 22.0916 37.2498 25.1447Z" fill="#DDE8ED"/>
<path d="M24.5071 13.5178C24.5071 14.4313 23.84 15.1886 22.9664 15.329C22.8709 15.3445 22.7727 15.3525 22.6724 15.3525C21.659 15.3525 20.8378 14.5313 20.8378 13.5178C20.8378 12.5044 21.659 11.6832 22.6724 11.6832C22.7727 11.6832 22.8709 11.6912 22.9664 11.7067C23.84 11.8474 24.5071 12.6047 24.5071 13.5178Z" fill="#D3A489"/>
<path d="M31.4036 21.6108L29.9192 23.9917L28.4347 21.6108" fill="#F74F4F"/>
<path d="M31.9163 30.7175L29.9192 33.2377L27.9218 30.7175L29.9195 23.3723L31.9163 30.7175Z" fill="#F74F4F"/>
<path d="M24.5071 13.5178C24.5071 14.4313 23.84 15.1886 22.9664 15.329C22.8078 14.7521 22.723 14.1448 22.723 13.5178C22.723 12.8912 22.8078 12.2839 22.9664 11.7067C23.84 11.8474 24.5071 12.6047 24.5071 13.5178Z" fill="#BF8E75"/>
<path d="M23.3282 13.5178C23.3282 13.8799 23.0345 14.1736 22.6724 14.1736C22.3103 14.1736 22.0169 13.8799 22.0169 13.5178C22.0169 13.1557 22.3103 12.8623 22.6724 12.8623C23.0345 12.8623 23.3282 13.1557 23.3282 13.5178Z" fill="#BF8E75"/>
<path d="M29.9186 21.8795L27.4293 23.2631L26.6721 19.7404L28.2187 18.8293" fill="#BFD5DE"/>
<path d="M29.9186 21.8795L32.4082 23.2631L33.1654 19.7404L31.6185 18.8293" fill="#BFD5DE"/>
<path d="M35.3307 13.5178C35.3307 14.4313 35.9978 15.1886 36.8714 15.329C36.9669 15.3445 37.0651 15.3525 37.1653 15.3525C38.1788 15.3525 39 14.5313 39 13.5178C39 12.5044 38.1788 11.6832 37.1653 11.6832C37.0651 11.6832 36.9669 11.6912 36.8714 11.7067C35.9978 11.8474 35.3307 12.6047 35.3307 13.5178Z" fill="#D3A489"/>
<path d="M35.3307 13.5178C35.3307 14.4313 35.9978 15.1886 36.8714 15.329C37.0302 14.7521 37.1147 14.1448 37.1147 13.5178C37.1147 12.8912 37.0302 12.2839 36.8714 11.7067C35.9978 11.8474 35.3307 12.6047 35.3307 13.5178Z" fill="#BF8E75"/>
<path d="M37.8211 13.5179C37.8211 13.88 37.5274 14.1737 37.1653 14.1737C36.8032 14.1737 36.5095 13.88 36.5095 13.5179C36.5095 13.1557 36.8032 12.8624 37.1653 12.8624C37.5274 12.8624 37.8211 13.1557 37.8211 13.5179Z" fill="#BF8E75"/>
<path d="M36.7452 12.5428C36.7452 15.9396 34.2636 18.7576 31.0144 19.2807C30.6583 19.3393 30.2923 19.3688 29.9189 19.3688C26.1487 19.3688 23.0929 16.313 23.0929 12.5428C23.0929 10.759 23.7124 8.08108 24.8326 6.86501C26.0799 5.51087 27.9325 5.71648 29.9189 5.71648C30.2923 5.71648 30.658 5.74623 31.0144 5.80485C34.2636 6.32794 36.7452 9.1457 36.7452 12.5428Z" fill="#BF8E75"/>
<path d="M31.8919 17.4859V19.907C31.8919 20.7934 31.3075 21.5426 30.5024 21.7914C30.3182 21.8485 30.1218 21.8795 29.9186 21.8795C28.8293 21.8795 27.9461 20.9964 27.9461 19.907V17.4859H31.8919Z" fill="#BF8E75"/>
<path d="M31.8919 19.7535V19.9071C31.8919 20.7935 31.3075 21.5427 30.5024 21.7914C29.7761 21.5683 29.2301 20.9366 29.1292 20.1639C29.261 20.1719 29.3934 20.1761 29.5267 20.1761C29.8999 20.1761 30.2658 20.1463 30.6223 20.088C31.0615 20.0172 31.4858 19.9044 31.8919 19.7535Z" fill="#D3A489"/>
<path d="M36.7452 12.5428C36.7452 15.9396 34.2637 18.7577 31.0144 19.2807C27.7655 18.7577 25.284 15.9396 25.284 12.5428C25.284 10.451 26.2248 8.57889 27.7069 7.32652C28.6311 6.54516 29.7662 6.00571 31.0144 5.80457C34.0435 6.29224 36.4063 8.77527 36.7116 11.862C36.7339 12.0861 36.7452 12.3134 36.7452 12.5428Z" fill="#D3A489"/>
<path d="M29.9192 15.9048C29.3473 15.9048 28.776 15.7617 28.255 15.4751C28.1077 15.3945 28.0542 15.2097 28.1351 15.0627C28.2157 14.9158 28.4005 14.8622 28.5475 14.9431C29.4062 15.415 30.4319 15.415 31.2909 14.9431C31.4376 14.8622 31.6224 14.9158 31.703 15.0627C31.7839 15.2097 31.7304 15.3945 31.5834 15.4751C31.0624 15.7617 30.4905 15.9048 29.9192 15.9048Z" fill="#BF8E75"/>
<path d="M28.4654 12.1455C28.4654 12.5731 28.1187 12.9198 27.6908 12.9198C27.2633 12.9198 26.9166 12.5731 26.9166 12.1455C26.9166 11.7177 27.2633 11.371 27.6908 11.371C28.1187 11.371 28.4654 11.7177 28.4654 12.1455Z" fill="#3D4159"/>
<path d="M32.9214 12.1455C32.9214 12.5731 32.5748 12.9198 32.1472 12.9198C31.7193 12.9198 31.3727 12.5731 31.3727 12.1455C31.3727 11.7177 31.7193 11.371 32.1472 11.371C32.5748 11.371 32.9214 11.7177 32.9214 12.1455Z" fill="#3D4159"/>
<path d="M28.3074 12.0086C28.3074 12.1919 28.1589 12.3407 27.9756 12.3407C27.7923 12.3407 27.6439 12.1919 27.6439 12.0086C27.6439 11.8257 27.7923 11.6769 27.9756 11.6769C28.1589 11.6769 28.3074 11.8257 28.3074 12.0086Z" fill="white"/>
<path d="M32.8015 12.0086C32.8015 12.1919 32.6531 12.3407 32.4698 12.3407C32.2865 12.3407 32.138 12.1919 32.138 12.0086C32.138 11.8257 32.2865 11.6769 32.4698 11.6769C32.6531 11.6769 32.8015 11.8257 32.8015 12.0086Z" fill="white"/>
<path d="M30.6934 14.0951H29.1447C28.9602 14.0951 28.8105 13.9454 28.8105 13.7609C28.8105 13.5764 28.9602 13.4271 29.1447 13.4271H30.6934C30.8779 13.4271 31.0275 13.5764 31.0275 13.7609C31.0272 13.9454 30.8779 14.0951 30.6934 14.0951Z" fill="#BF8E75"/>
<path d="M32.1666 24.9636H35.1423V25.8743H32.1666V24.9636Z" fill="#BFD5DE"/>
<path d="M29.5196 3.7666C31.5875 3.91418 33.2478 5.58461 33.3529 7.68737L33.3725 8.08221H34.5621L35.2027 12.3425L36.7544 11.8622L36.5462 7.68767C36.4361 5.47868 34.6091 3.74756 32.3984 3.75589L29.5196 3.7666Z" fill="#2A2F4F"/>
<path d="M36.4146 2.11884C38.0612 3.76546 38.0612 6.43534 36.4146 8.08196C34.768 9.72858 32.0981 9.72858 30.4515 8.08196L36.4146 2.11884Z" fill="#3D4159"/>
<path d="M30.4515 8.08197H25.2766L24.6357 12.3425L23.084 11.8623L23.2919 7.68742C23.402 5.47903 25.229 3.74731 27.44 3.75565L34.9141 3.78391L35.9022 5.56235" fill="#3D4159"/>
<path d="M30.3185 3.7666C28.2505 3.91418 26.5902 5.58461 26.4852 7.68737L26.4656 8.08221H25.2763L24.6354 12.3425L23.0836 11.8622L23.2919 7.68767C23.402 5.47868 25.229 3.74756 27.4397 3.75589L30.3185 3.7666Z" fill="#2A2F4F"/>
<path d="M27.7656 35.705V37.1671C25.256 38.3427 22.4552 39 19.5 39C16.5448 39 13.7431 38.3427 11.2336 37.1662V35.705C11.2336 32.8197 13.1923 30.3929 15.853 29.6815C15.9503 29.6553 16.0482 29.6312 16.1476 29.6097C16.4118 29.5523 16.6831 29.5127 16.9587 29.4904C17.1274 29.4767 17.297 29.4696 17.469 29.4696H21.5296C21.9839 29.4696 22.4258 29.5175 22.8525 29.6097C22.8772 29.6145 22.9019 29.6202 22.9257 29.6258C22.9974 29.6425 23.0688 29.66 23.1396 29.6791C23.1423 29.6797 23.1429 29.6797 23.1453 29.6806C23.8475 29.8683 24.5009 30.1757 25.0811 30.5792C26.7039 31.7048 27.7656 33.5805 27.7656 35.705Z" fill="#3D4159"/>
<path d="M23.1604 29.6097L23.1453 29.6806L21.1564 38.9301C21.0535 38.9387 20.9503 38.9467 20.8467 38.9539C20.7009 38.9634 20.5545 38.972 20.4072 38.9786C20.1064 38.9929 19.8041 39 19.5 39C19.1879 39 18.8784 38.9929 18.5705 38.9777C18.4312 38.9714 18.2917 38.9634 18.1524 38.953C18.0483 38.9459 17.9447 38.9387 17.8412 38.9301L15.853 29.6814L15.8381 29.6097H23.1604Z" fill="#66BAED"/>
<path d="M21.1734 31.7196L19.4994 34.4041L17.8257 31.7196" fill="#3D4159"/>
<path d="M20.8467 38.9539C20.7009 38.9634 20.5545 38.972 20.4072 38.9786C20.1064 38.9928 19.8041 39 19.5 39C19.1879 39 18.8784 38.9928 18.5705 38.9777C18.4312 38.9714 18.2917 38.9634 18.1524 38.953L19.5 33.7054L20.8467 38.9539Z" fill="#3D4159"/>
<path d="M19.4991 32.0222L16.6918 33.5823L15.8378 29.6103L17.582 28.5829" fill="#2BA1CF"/>
<path d="M19.4991 32.0222L22.3062 33.5823L23.1601 29.6103L21.4159 28.5829" fill="#2BA1CF"/>
<path d="M23.2663 34.9703H24.1569L22.6016 38.7539C21.8822 38.8694 21.1499 38.945 20.4072 38.9786L23.1396 29.6791L23.1604 29.6097L25.0811 30.237L23.2663 34.9703Z" fill="#2A2F4F"/>
<path d="M18.5704 38.9777C17.8269 38.9435 17.094 38.8664 16.3746 38.7501L14.8208 34.9703H15.7113L13.896 30.237L15.8173 29.6097L15.8381 29.6791L18.5704 38.9777Z" fill="#2A2F4F"/>
<path d="M21.7242 27.0678V29.7978C21.7242 30.7976 21.0651 31.6423 20.1573 31.9229C19.9493 31.9874 19.7279 32.0223 19.4988 32.0223C18.2702 32.0223 17.2747 31.0264 17.2747 29.7978V27.0678H21.7242Z" fill="#EAB599"/>
<path d="M21.7242 29.6249V29.798C21.7242 30.7975 21.0651 31.6422 20.1573 31.9231C19.3381 31.6711 18.7222 30.9591 18.6086 30.0876C18.7573 30.0968 18.9067 30.1012 19.0567 30.1012C19.4777 30.1012 19.8904 30.0679 20.2921 30.0022C20.7875 29.9224 21.2659 29.7948 21.7242 29.6249Z" fill="#F6CAAE"/>
<path d="M13.3967 22.5933C13.3967 23.6231 12.6442 24.4771 11.6591 24.6357C11.5514 24.6529 11.4407 24.6621 11.3279 24.6621C10.185 24.6621 9.25876 23.7362 9.25876 22.5933C9.25876 21.4504 10.1847 20.5242 11.3279 20.5242C11.4407 20.5242 11.5514 20.5334 11.6591 20.5509C12.6442 20.7095 13.3967 21.5635 13.3967 22.5933Z" fill="#F6CAAE"/>
<path d="M13.3967 22.5933C13.3967 23.6231 12.6442 24.477 11.659 24.6356C11.4802 23.9849 11.3847 23.2999 11.3847 22.5933C11.3847 21.8863 11.4802 21.2016 11.659 20.5509C12.6442 20.7095 13.3967 21.5635 13.3967 22.5933Z" fill="#EAB599"/>
<path d="M12.0673 22.5933C12.0673 23.0015 11.7361 23.3327 11.3279 23.3327C10.9194 23.3327 10.5885 23.0015 10.5885 22.5933C10.5885 22.1848 10.9194 21.8539 11.3279 21.8539C11.7361 21.8539 12.0673 22.1848 12.0673 22.5933Z" fill="#EAB599"/>
<path d="M25.6018 22.5933C25.6018 23.6231 26.3543 24.4771 27.3394 24.6357C27.4469 24.6529 27.5578 24.6621 27.6706 24.6621C28.8135 24.6621 29.7398 23.7362 29.7398 22.5933C29.7398 21.4504 28.8138 20.5242 27.6706 20.5242C27.5578 20.5242 27.4469 20.5334 27.3394 20.5509C26.3543 20.7095 25.6018 21.5635 25.6018 22.5933Z" fill="#F6CAAE"/>
<path d="M25.6018 22.5933C25.6018 23.6231 26.3543 24.477 27.3394 24.6356C27.5183 23.9849 27.6138 23.2999 27.6138 22.5933C27.6138 21.8863 27.5183 21.2016 27.3394 20.5509C26.3543 20.7095 25.6018 21.5635 25.6018 22.5933Z" fill="#EAB599"/>
<path d="M27.1969 18.5628V21.4939C27.1969 25.3245 24.3985 28.502 20.7345 29.0917C20.7223 29.0938 20.7092 29.0959 20.697 29.098C20.3073 29.1605 19.9073 29.1911 19.4991 29.1911C15.2481 29.1911 11.8022 25.7449 11.8022 21.4942V18.5628C11.8022 17.6677 11.9548 16.8075 12.2369 16.0083C13.2896 13.0126 16.144 10.8649 19.4991 10.8649H19.4997C19.9073 10.8649 20.3078 10.8965 20.6982 10.9581C24.3801 11.5332 27.1969 14.7193 27.1969 18.5628Z" fill="#EAB599"/>
<path d="M28.41 22.5933C28.41 23.0015 28.0791 23.3327 27.6706 23.3327C27.2624 23.3327 26.9312 23.0015 26.9312 22.5933C26.9312 22.1848 27.2624 21.8539 27.6706 21.8539C28.0791 21.8539 28.41 22.1848 28.41 22.5933Z" fill="#EAB599"/>
<path d="M27.1966 18.5627V21.4938C27.1966 25.3241 24.3985 28.5019 20.7345 29.0917C20.722 29.0938 20.7092 29.0958 20.6967 29.0979C17.0152 28.5225 14.1989 25.3366 14.1989 21.4938V18.5627C14.1989 14.7193 17.0158 11.5332 20.6982 10.958C24.3801 11.5332 27.1966 14.7193 27.1966 18.5627Z" fill="#F6CAAE"/>
<path d="M17.8599 21.0455C17.8599 21.5278 17.4689 21.9188 16.9869 21.9188C16.5046 21.9188 16.1136 21.5278 16.1136 21.0455C16.1136 20.5635 16.5046 20.1725 16.9869 20.1725C17.4689 20.1725 17.8599 20.5635 17.8599 21.0455Z" fill="#3D4159"/>
<path d="M22.8852 21.0455C22.8852 21.5278 22.4942 21.9188 22.0119 21.9188C21.5296 21.9188 21.1386 21.5278 21.1386 21.0455C21.1386 20.5635 21.5296 20.1725 22.0119 20.1725C22.4942 20.1725 22.8852 20.5635 22.8852 21.0455Z" fill="#3D4159"/>
<path d="M17.682 20.8916C17.682 21.0981 17.5145 21.2657 17.3077 21.2657C17.1012 21.2657 16.9337 21.0981 16.9337 20.8916C16.9337 20.6849 17.1012 20.5173 17.3077 20.5173C17.5145 20.5173 17.682 20.6849 17.682 20.8916Z" fill="white"/>
<path d="M22.7498 20.8916C22.7498 21.0981 22.5823 21.2657 22.3758 21.2657C22.169 21.2657 22.0015 21.0981 22.0015 20.8916C22.0015 20.6849 22.169 20.5173 22.3758 20.5173C22.5823 20.5173 22.7498 20.6849 22.7498 20.8916Z" fill="white"/>
<path d="M20.3727 22.9018H18.6261C18.4181 22.9018 18.2494 22.7331 18.2494 22.5251C18.2494 22.3168 18.4181 22.1484 18.6261 22.1484H20.3727C20.5807 22.1484 20.7494 22.3168 20.7494 22.5251C20.7491 22.7331 20.5804 22.9018 20.3727 22.9018Z" fill="#EAB599"/>
<path d="M19.4994 25.2849C18.8549 25.2849 18.2101 25.1233 17.6228 24.8002C17.457 24.7091 17.3963 24.5009 17.4877 24.3354C17.5787 24.1697 17.787 24.1093 17.9528 24.2C18.9213 24.7327 20.0775 24.7327 21.0461 24.2C21.2118 24.109 21.4201 24.1694 21.5111 24.3354C21.6025 24.5009 21.5418 24.7091 21.376 24.8002C20.7884 25.1233 20.1439 25.2849 19.4994 25.2849Z" fill="#EAB599"/>
<path d="M27.1969 15.9027V18.9052H25.7642V16.5537L15.4227 14.6321L13.2346 14.2254V18.9052H11.8019V15.9024C11.8019 12.4794 14.5762 9.70508 17.9986 9.70508H21.0002C21.0818 9.70508 21.1633 9.70657 21.2448 9.71073C24.5532 9.83808 27.1969 12.5612 27.1969 15.9027Z" fill="#2A2F4F"/>
<path d="M27.1969 15.9026V18.9052H25.7643V16.5537L15.4227 14.6321C15.9925 11.8953 18.367 9.82168 21.2448 9.71069C24.5532 9.83804 27.1969 12.5612 27.1969 15.9026Z" fill="#3D4159"/>
</g>
<defs>
<clipPath id="clip0">
<rect width="39" height="39" fill="white"/>
</clipPath>
</defs>
</svg>
