<svg width="39" height="39" viewBox="0 0 39 39" fill="none" xmlns="http://www.w3.org/2000/svg">
<g clip-path="url(#clip0)">
<path d="M17.2517 2.36316H2.46751C1.10472 2.36316 0 3.46795 0 4.83067V17.1005C0 18.4526 1.08758 19.55 2.43552 19.5672V19.5679L3.12305 19.957H7.0459L7.96628 19.568H17.2515C18.6143 19.568 19.719 18.4633 19.719 17.1005V4.83067C19.719 3.46803 18.6143 2.36331 17.2517 2.36316Z" fill="#6B61B1"/>
<path d="M21.9802 2.36316H17.0325C18.3953 2.36316 19.5 3.46788 19.5 4.83067V17.1005C19.5 18.4633 18.3953 19.568 17.0325 19.568H21.9802C23.343 19.568 24.4477 18.4633 24.4477 17.1005V4.83067C24.4477 3.46795 23.343 2.36316 21.9802 2.36316Z" fill="#5E54AC"/>
<path d="M2.43552 25.2999C2.43552 25.6594 2.88927 25.817 3.11215 25.5349L7.52883 19.9434C7.71606 19.7063 8.00155 19.568 8.30365 19.568H2.43552V25.2999Z" fill="#5E54AC"/>
<path d="M30.3514 30.0473L31.2378 31.1694C31.3899 31.1638 31.5133 31.0481 31.5333 30.8972C31.6223 30.223 32.052 29.643 32.6809 29.3471C33.6436 28.8943 34.31 27.9159 34.31 26.7816V12.6869C34.31 11.1215 33.041 9.85236 31.4755 9.85236H13.7506C12.1851 9.85236 10.916 11.1214 10.916 12.6869V26.7816C10.916 28.347 12.1851 29.6161 13.7506 29.6161H29.4612C29.8084 29.6161 30.1363 29.775 30.3514 30.0473Z" fill="#E49542"/>
<path d="M36.1655 9.85236H31.2011C32.7665 9.85236 34.0356 11.1214 34.0356 12.6869V26.7816C34.0356 27.9159 33.3692 28.8943 32.4065 29.3471C31.6973 29.6807 31.2379 30.3858 31.2379 31.1694L35.425 36.4703C35.6811 36.7944 36.2023 36.6134 36.2023 36.2004V29.6151C37.7507 29.5953 39.0001 28.3346 39.0001 26.7815V12.6869C39 11.1214 37.731 9.85236 36.1655 9.85236Z" fill="#E27D47"/>
<path d="M34.2961 15.588H15.62C15.295 15.588 15.0315 15.3245 15.0315 14.9995C15.0315 14.6744 15.295 14.4109 15.62 14.4109H34.2961C34.6211 14.4109 34.8846 14.6744 34.8846 14.9995C34.8846 15.3245 34.6211 15.588 34.2961 15.588Z" fill="#F0F7FF"/>
<path d="M34.2961 20.0869H15.62C15.295 20.0869 15.0315 19.8234 15.0315 19.4984C15.0315 19.1734 15.295 18.9099 15.62 18.9099H34.2961C34.6211 18.9099 34.8846 19.1734 34.8846 19.4984C34.8846 19.8234 34.6211 20.0869 34.2961 20.0869Z" fill="#F0F7FF"/>
<path d="M34.2961 24.5859H15.62C15.295 24.5859 15.0315 24.3224 15.0315 23.9974C15.0315 23.6724 15.295 23.4089 15.62 23.4089H34.2961C34.6211 23.4089 34.8846 23.6724 34.8846 23.9974C34.8846 24.3224 34.6211 24.5859 34.2961 24.5859Z" fill="#F0F7FF"/>
</g>
<defs>
<clipPath id="clip0">
<rect width="39" height="39" fill="white"/>
</clipPath>
</defs>
</svg>
