<svg width="39" height="39" viewBox="0 0 39 39" fill="none" xmlns="http://www.w3.org/2000/svg">
<g clip-path="url(#clip0)">
<path d="M33.0916 21.2582V2.06787H8.78351V27.9013" fill="#D6C8B0"/>
<path d="M30.9065 19.1903V0H6.59839V25.8333" fill="#F9EED7"/>
<path d="M34.9261 36.456V21.9035C34.9261 20.3546 33.6706 19.099 32.1217 19.099H19.6383C18.4852 19.099 17.4497 18.3933 17.028 17.3201L16.4754 15.9134C16.0538 14.8402 15.0182 14.1345 13.8651 14.1345H6.87833C5.32945 14.1345 4.07391 15.39 4.07391 16.9389V36.4561C4.07391 37.8611 5.21291 39.0001 6.6179 39.0001H32.3822C33.7871 39 34.9261 37.861 34.9261 36.456Z" fill="#FFD15C"/>
<path d="M5.73469 36.456V16.9388C5.73469 15.3899 6.99023 14.1343 8.53911 14.1343H6.87833C5.32945 14.1343 4.07391 15.3899 4.07391 16.9388V36.456C4.07391 37.861 5.21291 38.9999 6.6179 38.9999H8.27868C6.87369 38.9999 5.73469 37.861 5.73469 36.456Z" fill="#EDBB4C"/>
<path d="M12.7831 8.81251C14.2752 8.81251 15.4847 7.60293 15.4847 6.11084C15.4847 4.61876 14.2752 3.40918 12.7831 3.40918C11.291 3.40918 10.0814 4.61876 10.0814 6.11084C10.0814 7.60293 11.291 8.81251 12.7831 8.81251Z" fill="#DBCEBA"/>
<path d="M11.825 6.11109C11.825 4.92418 12.5907 3.91688 13.6548 3.55407C13.3812 3.46076 13.0881 3.40942 12.7828 3.40942C11.2907 3.40942 10.0812 4.61896 10.0812 6.11109C10.0812 7.60314 11.2907 8.81275 12.7828 8.81275C13.0881 8.81275 13.3812 8.76141 13.6548 8.6681C12.5907 8.30529 11.825 7.29792 11.825 6.11109Z" fill="#D6C8B0"/>
<path d="M10.0811 11.5144C10.0811 10.0222 11.2907 8.81268 12.7828 8.81268C14.2749 8.81268 15.4845 10.0222 15.4845 11.5144" fill="#FF525D"/>
<path d="M27.6805 4.8041H19.0353C18.6913 4.8041 18.4125 4.52523 18.4125 4.18131C18.4125 3.8374 18.6913 3.55853 19.0353 3.55853H27.6805C28.0246 3.55853 28.3033 3.8374 28.3033 4.18131C28.3033 4.52523 28.0246 4.8041 27.6805 4.8041Z" fill="#34ABE0"/>
<path d="M27.6805 17.0001H24.133C23.7889 17.0001 23.5102 16.7213 23.5102 16.3774C23.5102 16.0334 23.789 15.7546 24.133 15.7546H27.6805C28.0246 15.7546 28.3033 16.0334 28.3033 16.3774C28.3033 16.7213 28.0246 17.0001 27.6805 17.0001Z" fill="#34ABE0"/>
<path d="M27.6805 13.9512H19.0353C18.6913 13.9512 18.4125 13.6723 18.4125 13.3284C18.4125 12.9845 18.6913 12.7056 19.0353 12.7056H27.6805C28.0246 12.7056 28.3033 12.9845 28.3033 13.3284C28.3033 13.6723 28.0246 13.9512 27.6805 13.9512Z" fill="#34ABE0"/>
<path d="M27.6805 7.85311H19.0353C18.6913 7.85311 18.4125 7.57424 18.4125 7.23032C18.4125 6.88641 18.6913 6.60754 19.0353 6.60754H27.6805C28.0246 6.60754 28.3033 6.88641 28.3033 7.23032C28.3033 7.57432 28.0246 7.85311 27.6805 7.85311Z" fill="#34ABE0"/>
<path d="M27.6805 10.9022H19.0353C18.6913 10.9022 18.4125 10.6233 18.4125 10.2794C18.4125 9.93548 18.6913 9.65662 19.0353 9.65662H27.6805C28.0246 9.65662 28.3033 9.93548 28.3033 10.2794C28.3033 10.6233 28.0246 10.9022 27.6805 10.9022Z" fill="#34ABE0"/>
</g>
<defs>
<clipPath id="clip0">
<rect width="39" height="39" fill="white"/>
</clipPath>
</defs>
</svg>
