<svg width="225" height="30" viewBox="0 0 225 30" fill="none" xmlns="http://www.w3.org/2000/svg">
<path d="M49.7447 27C48.0607 27 46.5284 26.7435 45.1477 26.2304C43.7519 25.7022 42.6368 24.9326 41.8024 23.9215C40.9831 22.9105 40.5735 21.6881 40.5735 20.2545L40.5962 19.5528H45.2843L45.2615 20.0508C45.2615 20.9864 45.6712 21.7259 46.4904 22.2691C47.3249 22.8275 48.4855 23.1066 49.9723 23.1066C51.535 23.1066 52.6729 22.8954 53.3859 22.4728C54.0838 22.0654 54.4328 21.5146 54.4328 20.8204C54.4328 20.2017 54.2052 19.6886 53.7501 19.2812C53.2949 18.8737 52.7184 18.5493 52.0205 18.3078C51.3378 18.0664 50.3895 17.7721 49.1758 17.425C47.4462 16.9422 46.0504 16.4819 44.9884 16.0443C43.9264 15.5915 43.0161 14.9276 42.2575 14.0523C41.499 13.1771 41.1197 12.0226 41.1197 10.589C41.1197 8.59708 41.9238 7.08803 43.532 6.06187C45.1402 5.02062 47.2869 4.5 49.9723 4.5C52.4908 4.5 54.5542 5.03571 56.1624 6.10714C57.7705 7.16348 58.5746 8.76308 58.5746 10.9059V11.2907H53.9776V10.9965C53.9776 10.1967 53.6135 9.56288 52.8853 9.09507C52.157 8.62726 51.1633 8.39336 49.904 8.39336C48.5689 8.39336 47.5449 8.57445 46.8318 8.93662C46.1187 9.29879 45.7622 9.79678 45.7622 10.4306C45.7622 10.9135 45.9746 11.3285 46.3994 11.6756C46.8242 12.0226 47.3552 12.3094 47.9924 12.5357C48.6296 12.7621 49.5323 13.0337 50.7006 13.3506C52.4453 13.8033 53.8714 14.2636 54.979 14.7314C56.1017 15.1841 57.0651 15.8481 57.8692 16.7233C58.6733 17.6137 59.0753 18.7757 59.0753 20.2093C59.0753 22.5332 58.2409 24.246 56.572 25.3476C54.9031 26.4492 52.6274 27 49.7447 27ZM62.6255 26.6152V4.88481H67.2452V26.6152H62.6255ZM71.4781 26.6152V4.88481H75.9613L84.3816 16.7007C84.5485 16.9271 84.7837 17.2968 85.0871 17.8099C85.3754 18.3229 85.565 18.6625 85.656 18.8285L85.8153 18.7379C85.8153 18.5568 85.8002 18.2777 85.7698 17.9004C85.7395 17.5231 85.7243 17.1836 85.7243 16.8818V4.88481H90.2075V26.6152H85.7243L77.2813 14.7088C77.0234 14.3466 76.7654 13.9391 76.5075 13.4864C76.2496 13.0337 76.0903 12.7394 76.0296 12.6036L75.8703 12.7168C75.8703 12.8526 75.8855 13.1167 75.9158 13.5091C75.9462 13.8863 75.9613 14.256 75.9613 14.6182V26.6152H71.4781ZM99.7657 26.6152V8.84608H93.0067V4.88481H111.144V8.84608H104.385V26.6152H99.7657ZM113.944 26.6152V4.88481H125.55C127.993 4.88481 129.828 5.48089 131.057 6.67304C132.286 7.86519 132.901 9.54024 132.901 11.6982C132.901 14.7314 131.626 16.7611 129.077 17.7872L133.538 26.6152H128.531L124.685 18.5116H118.563V26.6152H113.944ZM118.563 14.6635H125.117C126.119 14.6635 126.885 14.3994 127.416 13.8712C127.947 13.3431 128.212 12.6187 128.212 11.6982C128.212 10.7626 127.947 10.0458 127.416 9.54779C126.885 9.03471 126.119 8.77817 125.117 8.77817H118.563V14.6635ZM134.88 26.6152L143.414 4.88481H149.218L157.752 26.6152H152.722L151.152 22.4728H141.207L139.659 26.6152H134.88ZM142.641 18.6247H149.696L147.625 13.1242C147.458 12.6715 147.215 11.9321 146.896 10.9059C146.578 9.86469 146.365 9.17807 146.259 8.84608H146.1C145.994 9.17807 145.781 9.86469 145.463 10.9059C145.144 11.9321 144.894 12.6715 144.712 13.1242L142.641 18.6247ZM159.959 26.6152V4.88481H164.442L172.863 16.7007C173.03 16.9271 173.257 17.2968 173.545 17.8099C173.849 18.3229 174.046 18.6625 174.137 18.8285L174.296 18.7379C174.296 18.5568 174.281 18.2777 174.251 17.9004C174.205 17.5231 174.183 17.1836 174.183 16.8818V4.88481H178.689V26.6152H174.183L165.74 14.7088C165.497 14.3466 165.246 13.9391 164.989 13.4864C164.731 13.0337 164.571 12.7394 164.511 12.6036L164.351 12.7168C164.351 12.8526 164.367 13.1167 164.397 13.5091C164.427 13.8863 164.442 14.256 164.442 14.6182V26.6152H159.959ZM191.342 27C189.658 27 188.118 26.7435 186.722 26.2304C185.341 25.7022 184.234 24.9326 183.399 23.9215C182.565 22.9105 182.148 21.6881 182.148 20.2545L182.193 19.5528H186.881L186.836 20.0508C186.836 20.9864 187.253 21.7259 188.087 22.2691C188.907 22.8275 190.06 23.1066 191.547 23.1066C193.124 23.1066 194.262 22.8954 194.96 22.4728C195.658 22.0654 196.007 21.5146 196.007 20.8204C196.007 20.2017 195.779 19.6886 195.324 19.2812C194.869 18.8737 194.3 18.5493 193.617 18.3078C192.92 18.0664 191.964 17.7721 190.75 17.425C189.036 16.9422 187.647 16.4819 186.585 16.0443C185.523 15.5915 184.613 14.9276 183.854 14.0523C183.081 13.1771 182.694 12.0226 182.694 10.589C182.694 8.59708 183.506 7.08803 185.129 6.06187C186.737 5.02062 188.876 4.5 191.547 4.5C194.08 4.5 196.151 5.03571 197.759 6.10714C199.352 7.16348 200.149 8.76308 200.149 10.9059V11.2907H195.575V10.9965C195.575 10.1967 195.21 9.56288 194.482 9.09507C193.739 8.62726 192.745 8.39336 191.501 8.39336C190.151 8.39336 189.127 8.57445 188.429 8.93662C187.716 9.29879 187.359 9.79678 187.359 10.4306C187.359 10.9135 187.572 11.3285 187.996 11.6756C188.421 12.0226 188.952 12.3094 189.589 12.5357C190.227 12.7621 191.129 13.0337 192.298 13.3506C194.027 13.8033 195.453 14.2636 196.576 14.7314C197.683 15.1841 198.647 15.8481 199.466 16.7233C200.27 17.6137 200.672 18.7757 200.672 20.2093C200.672 22.5332 199.838 24.246 198.169 25.3476C196.5 26.4492 194.224 27 191.342 27ZM202.129 26.6152L210.663 4.88481H216.466L225 26.6152H219.971L218.423 22.4728H208.478L206.908 26.6152H202.129ZM209.912 18.6247H216.944L214.873 13.1242C214.706 12.6715 214.463 11.9321 214.145 10.9059C213.826 9.86469 213.614 9.17807 213.507 8.84608H213.348C213.242 9.17807 213.03 9.86469 212.711 10.9059C212.392 11.9321 212.15 12.6715 211.983 13.1242L209.912 18.6247Z" fill="#00BD56"/>
<path d="M6.95235 5.48487C8.59658 5.48487 9.92949 4.25704 9.92949 2.74244C9.92949 1.22783 8.59658 0 6.95235 0C5.30813 0 3.97522 1.22783 3.97522 2.74244C3.97522 4.25704 5.30813 5.48487 6.95235 5.48487Z" fill="#00BD56"/>
<path d="M29.9312 5.48487C31.5755 5.48487 32.9084 4.25704 32.9084 2.74244C32.9084 1.22783 31.5755 0 29.9312 0C28.287 0 26.9541 1.22783 26.9541 2.74244C26.9541 4.25704 28.287 5.48487 29.9312 5.48487Z" fill="#00BD56"/>
<path d="M36.3128 8.45512C36.2871 8.12343 36.126 7.81301 35.8619 7.5863C35.5978 7.35959 35.2504 7.23341 34.8894 7.23315H1.99401C1.63302 7.23341 1.28553 7.35959 1.02145 7.5863C0.757366 7.81301 0.596283 8.12343 0.570605 8.45512L0.00163736 15.862C-0.0162087 16.205 0.112389 16.5409 0.359917 16.7977C0.607445 17.0545 0.954245 17.2118 1.32612 17.2361C1.698 17.2604 2.06542 17.1496 2.34977 16.9275C2.63412 16.7054 2.81283 16.3896 2.84766 16.0477L3.32291 9.86279H3.61074V28.6866C3.61074 29.4121 4.25058 30 5.03808 30C5.41639 30.0001 5.77927 29.8618 6.04692 29.6155C6.31458 29.3692 6.46511 29.0351 6.46542 28.6866V18.3912H7.43798V28.6866C7.43798 29.4121 8.07703 30 8.86532 30C9.05267 30.0002 9.23822 29.9663 9.41136 29.9004C9.5845 29.8344 9.74184 29.7377 9.87439 29.6157C10.0069 29.4938 10.1121 29.3489 10.1839 29.1895C10.2556 29.0301 10.2926 28.8592 10.2927 28.6866V9.86279H11.2258V28.6866C11.2258 29.4121 11.8657 30 12.6532 30C13.0315 30.0001 13.3944 29.8618 13.662 29.6155C13.9297 29.3692 14.0802 29.0351 14.0805 28.6866V18.3912H15.0531V28.6866C15.0531 29.4121 15.6921 30 16.4804 30C16.6678 30.0002 16.8533 29.9663 17.0265 29.9004C17.1996 29.8344 17.3569 29.7377 17.4895 29.6157C17.622 29.4938 17.7272 29.3489 17.799 29.1895C17.8707 29.0301 17.9077 28.8592 17.9078 28.6866V9.86279H18.9469V28.6866C18.9469 29.4121 19.5867 30 20.3742 30C20.7525 30.0001 21.1154 29.8618 21.383 29.6155C21.6507 29.3692 21.8012 29.0351 21.8015 28.6866V18.3912H22.7741V28.6866C22.7741 29.4121 23.4132 30 24.2014 30C24.3888 30.0002 24.5743 29.9663 24.7475 29.9004C24.9206 29.8344 25.078 29.7377 25.2105 29.6157C25.3431 29.4938 25.4482 29.3489 25.52 29.1895C25.5918 29.0301 25.6287 28.8592 25.6288 28.6866V9.86207H26.5907V28.6866C26.5907 29.4121 27.229 30 28.0181 30C28.2054 30.0001 28.3909 29.9662 28.564 29.9003C28.7372 29.8343 28.8945 29.7376 29.027 29.6156C29.1596 29.4937 29.2647 29.3489 29.3365 29.1895C29.4083 29.0301 29.4453 28.8592 29.4454 28.6866V18.3912H30.418V28.6866C30.418 29.4121 31.0574 30 31.8453 30C32.6328 30 33.2726 29.4121 33.2726 28.6866V9.86279H33.5605L34.0357 16.0477C34.049 16.2198 34.0989 16.3879 34.1826 16.5423C34.2664 16.6966 34.3823 16.8343 34.5238 16.9474C34.6653 17.0605 34.8296 17.1468 35.0073 17.2014C35.185 17.256 35.3727 17.2779 35.5595 17.2657C35.7464 17.2535 35.9288 17.2075 36.0964 17.1304C36.264 17.0532 36.4134 16.9464 36.5362 16.8161C36.659 16.6857 36.7527 16.5344 36.812 16.3707C36.8713 16.207 36.895 16.0341 36.8817 15.862L36.3128 8.45512Z" fill="#00BD56"/>
<path d="M14.5668 5.48487C16.211 5.48487 17.5439 4.25704 17.5439 2.74244C17.5439 1.22783 16.211 0 14.5668 0C12.9226 0 11.5897 1.22783 11.5897 2.74244C11.5897 4.25704 12.9226 5.48487 14.5668 5.48487Z" fill="#00BD56"/>
<path d="M22.2874 5.48487C23.9317 5.48487 25.2646 4.25704 25.2646 2.74244C25.2646 1.22783 23.9317 0 22.2874 0C20.6432 0 19.3103 1.22783 19.3103 2.74244C19.3103 4.25704 20.6432 5.48487 22.2874 5.48487Z" fill="#00BD56"/>
</svg>
