<svg width="80" height="80" viewBox="0 0 80 80" fill="none" xmlns="http://www.w3.org/2000/svg">
<path d="M39.9999 79.9998C62.0913 79.9998 79.9998 62.0913 79.9998 39.9999C79.9998 17.9086 62.0913 0 39.9999 0C17.9086 0 0 17.9086 0 39.9999C0 62.0913 17.9086 79.9998 39.9999 79.9998Z" fill="#5C5E70"/>
<path d="M21.3594 0.0221572C9.82039 0.26919 0.375958 9.61159 0.011268 21.1473C-0.169983 26.8783 1.85815 32.1331 5.30771 36.1253C6.86131 37.9232 7.30475 40.4283 6.50553 42.6658L5.06895 46.6882C4.60176 47.9965 6.11693 49.1148 7.22944 48.2828L12.3246 44.4721C13.8407 43.3382 15.7659 42.9165 17.6234 43.2824C19.5576 43.6635 21.583 43.7895 23.6659 43.6173C34.6249 42.7104 43.2676 33.6472 43.6614 22.6576C44.1128 10.0708 33.9068 -0.246438 21.3594 0.0221572Z" fill="#FF525D"/>
<path d="M71.0649 56.2158C69.2168 58.4459 68.6307 61.4599 69.6037 64.1865L70.2943 66.1212C69.4224 67.1318 68.5001 68.0984 67.5318 69.0174L63.2411 65.8126C61.4305 64.4624 59.1416 63.9269 56.9211 64.3399C55.4892 64.6077 53.8859 64.8444 52.7219 64.8444C39.5708 64.8444 28.9113 54.1848 28.9113 41.0338C28.9097 27.8959 39.5823 17.2232 52.7219 17.2232C65.8713 17.2232 76.5325 27.8828 76.5325 41.0338C76.5328 46.8035 74.4789 52.095 71.0649 56.2158Z" fill="#FFD15C"/>
<path d="M56.0833 54.2051C56.0833 56.0067 54.5453 57.5886 52.7437 57.5886C50.8101 57.5886 49.3601 56.0067 49.3601 54.2051C49.3601 52.3593 50.8103 50.8215 52.7437 50.8215C54.5455 50.8215 56.0833 52.3595 56.0833 54.2051ZM55.2484 45.856C55.2484 47.2184 53.7542 47.7896 52.6997 47.7896C51.2934 47.7896 50.1071 47.2184 50.1071 45.856C50.1071 40.6269 49.4921 33.1128 49.4921 27.8834C49.4921 26.1697 50.8984 25.2029 52.6998 25.2029C54.4137 25.2029 55.8637 26.1695 55.8637 27.8834C55.8634 33.1127 55.2484 40.6268 55.2484 45.856Z" fill="#F9EED7"/>
<path d="M25.5861 21.0026C23.3697 22.7354 23.329 23.9446 23.329 26.0403C23.329 26.8062 22.9261 27.6925 20.9512 27.6925C19.299 27.6925 18.7348 27.0881 18.7348 24.9923C18.7348 21.5263 20.2664 19.874 21.435 18.8665C22.765 17.738 25.0219 16.4887 25.0219 14.3124C25.0219 12.4586 23.4098 11.5718 21.3947 11.5718C17.284 11.5718 18.1704 14.6751 15.9943 14.6751C14.9062 14.6751 13.5762 13.9497 13.5762 12.3777C13.5762 10.2016 16.0749 6.97736 21.5157 6.97736C26.6744 6.97736 30.0999 9.83878 30.0999 13.6271C30.0999 17.4154 26.6744 20.1562 25.5861 21.0026ZM24.095 33.5767C24.095 35.2289 22.7245 36.6799 20.9917 36.6799C19.2589 36.6799 17.9287 35.2289 17.9287 33.5767C17.9287 31.8841 19.2992 30.4734 20.9917 30.4734C22.6842 30.4734 24.095 31.8841 24.095 33.5767Z" fill="#F9EED7"/>
</svg>
