<svg width="400" height="468" viewBox="0 0 400 468" fill="none" xmlns="http://www.w3.org/2000/svg">
<g clip-path="url(#clip0)">
<path d="M77.8193 322.343H25.3116C23.1272 322.342 21.0083 321.599 19.3032 320.236C17.5981 318.874 16.4084 316.972 15.9296 314.845L4.48723 263.942C4.1722 262.539 4.17725 261.083 4.50199 259.682C4.82673 258.281 5.46285 256.971 6.36331 255.849C7.26377 254.726 8.40552 253.82 9.7041 253.198C11.0027 252.575 12.4249 252.252 13.8655 252.252" stroke="#652F08" stroke-width="3" stroke-miterlimit="10" stroke-linecap="round"/>
<path d="M174.668 322.343H122.16C119.976 322.342 117.857 321.599 116.152 320.236C114.447 318.874 113.257 316.972 112.778 314.845L101.336 263.942C101.021 262.539 101.026 261.083 101.351 259.682C101.675 258.281 102.312 256.971 103.212 255.849C104.112 254.726 105.254 253.82 106.553 253.198C107.851 252.575 109.274 252.252 110.714 252.252" stroke="#652F08" stroke-width="3" stroke-miterlimit="10" stroke-linecap="round"/>
<path d="M117.198 270.212H28.0899C24.8468 270.212 21.6991 269.116 19.1592 267.104C16.6192 265.091 14.8364 262.28 14.101 259.127L1.26016 204.085C0.841736 202.291 0.834694 200.425 1.23956 198.628C1.64443 196.831 2.45076 195.149 3.59834 193.706C4.74593 192.264 6.20514 191.098 7.86705 190.298C9.52896 189.497 11.3506 189.081 13.1961 189.081H102.308C105.551 189.081 108.698 190.177 111.237 192.189C113.777 194.202 115.559 197.013 116.293 200.166L129.134 255.219C129.55 257.013 129.555 258.876 129.149 260.672C128.743 262.467 127.936 264.148 126.789 265.589C125.642 267.03 124.183 268.194 122.523 268.994C120.862 269.795 119.042 270.211 117.198 270.212Z" fill="white" stroke="#652F08" stroke-width="3" stroke-miterlimit="10" stroke-linecap="round"/>
<path d="M177.36 309.646H34.4467C30.9339 309.646 28.0861 312.489 28.0861 315.995C28.0861 319.501 30.9339 322.343 34.4467 322.343H177.36C180.873 322.343 183.721 319.501 183.721 315.995C183.721 312.489 180.873 309.646 177.36 309.646Z" fill="#EAEEFF" stroke="#652F08" stroke-width="3" stroke-miterlimit="10" stroke-linecap="round"/>
<path d="M17.459 466.675L35.2021 334.697C35.5424 327.774 41.0093 322.343 47.6391 322.343H78.3016C84.9315 322.343 90.3984 327.774 90.7424 334.697L108.486 466.675" stroke="#652F08" stroke-width="3" stroke-miterlimit="10" stroke-linecap="round"/>
<path d="M130.147 322.343H159.92C166.355 322.343 171.665 327.774 171.998 334.697L189.554 466.675" stroke="#652F08" stroke-width="3" stroke-miterlimit="10" stroke-linecap="round"/>
<path d="M270.642 191.564C272.575 192.837 277.058 202.317 277.141 203.459C277.223 204.601 272.074 213.088 272.074 213.088C272.074 213.088 270.028 213.133 269.64 208.464C269.165 202.936 266.734 200.843 263.212 200.055C261.738 199.727 259.031 200.846 258.84 203.011C258.65 205.176 264.251 206.613 265.377 207.926C267.086 209.912 266.125 212.711 266.125 212.778C266.125 212.778 257.479 210.166 255.819 209.68C254.323 209.236 247.645 203.175 243.479 197.166C241.929 198.3 240.305 199.328 238.618 200.245C228.148 205.866 192.25 218.94 173.655 215.977C154.98 212.991 169.897 153.649 169.897 153.649C196.939 154.895 208.262 151.458 210.326 150.73L206.127 178.162C217.491 177.826 245.454 182.45 245.468 182.454C253.325 183.484 267.863 189.739 270.642 191.564Z" fill="#F1921B"/>
<path d="M169.766 153.621H169.926C196.969 154.868 208.292 151.431 210.356 150.703L209.365 157.421C209.365 157.421 189.304 166.848 166.991 166.005L169.766 153.621Z" fill="#EB7200"/>
<path d="M172.477 228.631C178.901 228.161 190.545 153.547 190.545 153.547C204.885 153.756 222.225 147.079 222.225 147.079C222.225 147.079 210.367 108.294 206.28 100.296C202.193 92.2975 172.854 78.4696 169.392 77.4694L112.202 64.4067C112.202 64.4067 63.3854 76.5102 47.9906 88.931C32.5958 101.352 20.5663 153.744 20.5663 153.744C48.8394 165.124 78.1521 163.448 78.1521 163.448L68.1867 223.399C64.9597 237.954 54.6503 284.166 72.8272 306.604C72.8272 306.604 87.4518 234.864 172.477 228.631Z" fill="#EAEEFF"/>
<path d="M134.893 83.6014L117.789 94.018L96.1008 68.848L112.382 59.1144C112.856 58.8324 113.382 58.6472 113.929 58.5696C114.475 58.492 115.032 58.5236 115.566 58.6625C116.101 58.8014 116.602 59.0448 117.041 59.3786C117.481 59.7125 117.849 60.1301 118.125 60.6073L134.893 83.6014Z" fill="#DBDAFF"/>
<path d="M160.903 85.99L172.94 93.0812L172.361 78.6674L169.392 77.4694C169.392 77.4694 164.104 81.0075 160.903 85.99Z" fill="#DBDAFF"/>
<path d="M188.088 214.975C188.088 216.688 170.461 216.065 167.978 216.065C165.495 216.065 149.943 216.655 146.29 216.065C126.431 217.696 37.8495 224.123 27.5477 209.832C15.623 193.283 26.2763 155.849 26.2763 155.849C53.0312 165.124 78.1521 163.437 78.1521 163.437L75.9571 177.653C97.1927 180.266 135.513 193.701 148.541 198.408C151.335 197.516 161.969 194.302 167.354 195.527C173.584 196.926 181.066 202.524 181.844 204.081C182.622 205.637 188.088 213.266 188.088 214.975Z" fill="#FED9AA"/>
<path d="M167.967 216.065C170.45 216.065 188.077 216.688 188.077 214.979C188.077 213.269 182.621 205.648 181.844 204.092C181.066 202.536 173.587 196.937 167.354 195.538C167.354 195.538 175.046 206.201 167.967 216.065Z" fill="#FED9AA"/>
<path d="M26.2614 155.861C26.2614 155.861 53.6445 165.475 78.1521 163.441L75.9571 177.653C75.9571 177.653 43.2529 172.428 25.1022 160.604L26.2614 155.861Z" fill="#FED9AA"/>
<path d="M263.17 468.019H202.619C202.56 467.097 202.537 466.216 202.556 465.369H263.249C263.315 466.252 263.289 467.141 263.17 468.019Z" fill="#3F4D79"/>
<path d="M208.789 440.96C209.006 447.551 202.623 451.728 202.623 465.35H263.171C263.171 465.35 264.049 453.922 251.953 451.287C239.856 448.652 228.832 445.133 227.733 440.96H208.789Z" fill="#FFB000"/>
<path d="M143.673 233.912C143.673 233.912 236.086 228.142 258.545 254.514C281.003 280.886 237.41 374.937 233.005 432.074C233.005 432.074 210.891 434.272 201.913 432.074C192.935 429.875 185.119 332.192 207.742 305.38C207.742 305.38 121.738 325.127 88.1996 300.222C54.6616 275.317 129.721 234.383 143.673 233.912Z" fill="#3C4564"/>
<path d="M227.725 440.96C221.585 443.032 214.933 443.032 208.793 440.96L207.002 432.809C207.002 432.809 218.766 433.402 229.513 432.376L227.725 440.96Z" fill="#F1921B"/>
<path d="M400 376.505L351.968 413.301C351.288 412.472 350.673 411.662 350.125 410.871L397.966 374.221C398.729 374.902 399.411 375.669 400 376.505Z" fill="#3F4D79"/>
<path d="M339.991 387.884C344.187 392.983 341.666 400.175 349.979 410.983L398.011 374.187C398.011 374.187 391.736 364.588 380.522 369.854C369.308 375.12 358.43 379.024 355.008 376.378L339.991 387.884Z" fill="#FFB000"/>
<path d="M72.8272 302.872C74.2108 310.314 152.849 328.348 236.528 275.627C236.528 275.627 242.028 339.224 326.578 385.354C326.578 385.354 344.976 378.726 353.243 364.159C353.243 364.159 298.088 299.782 276.853 240.664C267.938 215.841 155.739 228.837 139.335 233.912C122.931 238.988 66.6611 269.704 72.8272 302.872Z" fill="#3F4D79"/>
<path d="M355.008 376.378C355.008 376.378 351.385 387.515 339.991 387.884L332.565 382.63C339.28 379.204 345.252 374.489 350.14 368.757L355.008 376.378Z" fill="#F1921B"/>
<path d="M145.086 43.8907C145.086 43.8907 141.59 53.0645 118.911 61.8053C118.911 61.8053 134.87 83.6089 151.103 104.095C151.103 104.095 157.609 85.2734 169.369 77.4769L145.086 43.8907Z" fill="#FED9AA"/>
<path d="M169.392 77.4694C165.925 79.8319 163.005 83.0229 160.589 86.4267C153.111 80.8284 144.701 71.0015 142.211 63.873C140.98 60.346 144.237 50.8103 146.126 45.3015L169.392 77.4694Z" fill="#FED9AA"/>
<path d="M144.63 45.6822C144.63 48.668 142.031 57.8604 145.176 61.5478C150.927 68.2919 167.402 79.0892 175.506 78.6376C181.279 78.3278 189.457 53.3295 190.676 49.5936C191.895 45.8576 197.16 30.8765 193.421 26.8719C189.681 22.8672 158.424 14.104 152.213 27.01C145.329 41.3155 144.63 45.6822 144.63 45.6822Z" fill="#FED9AA"/>
<path d="M206.28 18.1833C203.21 38.229 190.13 40.849 164.362 25.7933C152.557 18.8999 160.903 31.246 154.266 41.9649L152.097 42.7711C152.168 41.6925 152.322 37.2362 150.1 37.225C146.829 37.225 145.823 42.1665 145.509 45.2157L144.252 45.6822C144.252 45.6822 144.118 23.3375 147.292 16.2351C155.145 -1.34732 177.843 8.15114 183.41 11.1406C200.978 20.5645 206.28 18.1833 206.28 18.1833Z" fill="#8B4A0E"/>
<path d="M156.339 31.5842C155.088 34.2468 145.089 49.6249 152.564 57.0732C160.039 64.5215 165.25 53.3508 179.133 57.0011C187.411 59.1721 185.275 64.9941 185.275 64.9941C185.275 64.9941 182.254 69.9945 179.953 78.8367C179.199 80.8146 148.78 77.2497 143.867 61.4138C141.731 54.5356 147.106 43.6249 151.459 37.1528C154.075 33.2483 156.339 31.5842 156.339 31.5842Z" fill="#8B4A0E"/>
<path d="M148.5 30.8258L148.464 30.8156C144.078 29.5702 139.511 32.1094 138.264 36.4869L137.247 40.0552C135.999 44.4327 138.543 48.9909 142.929 50.2362L142.965 50.2464C147.351 51.4918 151.918 48.9526 153.165 44.5751L154.182 41.0068C155.43 36.6293 152.886 32.0711 148.5 30.8258Z" fill="white"/>
<path d="M154.487 39.9346L152.849 45.6822C152.331 47.4957 151.113 49.0297 149.462 49.9472C147.812 50.8647 145.864 51.0906 144.047 50.5751L141.833 49.9444C141.736 49.9183 141.642 49.8884 141.545 49.8548C143.332 50.2868 145.217 50.0106 146.804 49.0842C148.391 48.1579 149.557 46.6535 150.056 44.8872L151.693 39.1397C152.2 37.3764 152.002 35.4859 151.142 33.8651C150.282 32.2442 148.825 31.0192 147.079 30.4473L147.371 30.522L149.573 31.1415C150.476 31.3936 151.321 31.8216 152.057 32.4009C152.794 32.9802 153.408 33.6993 153.865 34.5167C154.322 35.3341 154.612 36.2337 154.718 37.1636C154.825 38.0935 154.746 39.0353 154.487 39.9346Z" fill="white"/>
<path d="M259.181 217.005H154.259C149.469 217.005 146.432 212.224 148.743 208.321L184.267 148.355C187.356 143.13 193.241 139.898 199.658 139.898H304.584C309.374 139.898 312.41 144.679 310.099 148.583L274.575 208.548C271.475 213.766 265.582 217.005 259.181 217.005Z" fill="#EAEEFF"/>
<path d="M258.152 218.931H157.538C152.845 218.931 149.872 214.247 152.139 210.422L186.94 151.673C189.969 146.56 195.747 143.388 202.021 143.388H302.635C307.328 143.388 310.301 148.072 308.035 151.897L273.233 210.642C270.204 215.755 264.427 218.931 258.152 218.931Z" fill="#C0C1FF"/>
<path d="M259.181 217.005H154.259C149.469 217.005 146.432 212.224 148.743 208.321L184.267 148.355C187.356 143.13 193.241 139.898 199.658 139.898H304.584C309.374 139.898 312.41 144.679 310.099 148.583L274.575 208.548C271.475 213.766 265.582 217.005 259.181 217.005Z" stroke="#000101" stroke-width="2" stroke-miterlimit="10"/>
<path d="M260.594 217.084H69.0019C66.9822 217.084 65.3448 218.718 65.3448 220.734V221.54C65.3448 223.556 66.9822 225.19 69.0019 225.19H260.594C262.614 225.19 264.251 223.556 264.251 221.54V220.734C264.251 218.718 262.614 217.084 260.594 217.084Z" fill="#D1D1FF" stroke="#000101" stroke-width="2" stroke-miterlimit="10"/>
</g>
<defs>
<clipPath id="clip0">
<rect width="400" height="468" fill="white"/>
</clipPath>
</defs>
</svg>
